<svg xmlns="http://www.w3.org/2000/svg" viewBox="0 0 773 264"><defs><style>.cls-1,.cls-3{fill:#fd2827;}.cls-2{font-size:69.52px;font-family:DINTBold, "DIN[T]";letter-spacing:-0.06em;}.cls-3{letter-spacing:-0.05em;}</style></defs><g id="Capa_3" data-name="Capa 3"><rect x="203.68" y="180.54" width="73.58" height="73.58"/><rect x="203.68" y="10.31" width="73.58" height="73.58"/><rect x="33.45" y="180.54" width="73.58" height="73.58"/><rect x="118.57" y="180.54" width="73.58" height="73.58"/><rect x="161.12" y="10.31" width="31.02" height="73.58"/><rect x="54.73" y="116.7" width="31.02" height="73.58" transform="translate(-83.25 223.73) rotate(-90)"/><rect x="203.68" y="95.42" width="73.58" height="73.58"/><polygon points="76.01 126.44 107.02 126.44 107.02 91 76.01 101.08 76.01 126.44"/><polygon points="33.45 126.44 64.47 126.44 64.47 104.83 33.45 114.9 33.45 126.44"/><polygon points="149.58 10.3 92.71 10.3 116.61 83.88 149.58 83.88 149.58 10.3"/><rect class="cls-1" x="20.1" y="19.68" width="73.58" height="73.58" transform="translate(-14.67 20.34) rotate(-18)"/><text class="cls-2" transform="translate(288.74 60.14) scale(0.71 1)">OBSERVATORIO<tspan x="0" y="64.55">METROPOLITANO DE</tspan><tspan class="cls-1"><tspan x="0" y="129.1">DESALOJOS Y</tspan></tspan><tspan class="cls-3"><tspan x="0" y="193.65">CONFLICTOS URBANOS</tspan></tspan></text></g></svg>