<svg xmlns="http://www.w3.org/2000/svg" viewBox="0 0 790 722"><defs><style>.cls-1{fill:#fd2827;}</style></defs><g id="Capa_3" data-name="Capa 3"><rect x="560.76" y="495.26" width="204" height="204"/><rect x="560.76" y="23.26" width="204" height="204"/><rect x="88.76" y="495.26" width="204" height="204"/><rect x="324.76" y="495.26" width="204" height="204"/><rect x="442.76" y="23.26" width="86" height="204"/><rect x="147.76" y="318.26" width="86" height="204" transform="translate(-229.5 611.03) rotate(-90)"/><rect x="560.76" y="259.26" width="204" height="204"/><polygon points="206.76 345.26 292.76 345.26 292.76 247 206.76 274.94 206.76 345.26"/><polygon points="88.76 345.26 174.76 345.26 174.76 285.34 88.76 313.28 88.76 345.26"/><polygon points="410.76 23.26 253.07 23.26 319.35 227.26 410.76 227.26 410.76 23.26"/><rect class="cls-1" x="51.76" y="49.26" width="204" height="204" transform="translate(-39.22 54.92) rotate(-18)"/></g></svg>